<?xml version="1.0" encoding="UTF-8" standalone="no"?>
<!-- Created with Inkscape (http://www.inkscape.org/) -->

<svg
   version="1.1"
   id="svg2988"
   width="1592.7206"
   height="181.80316"
   viewBox="0 0 1592.7206 181.80316"
   sodipodi:docname="logo_white.svg"
   inkscape:version="1.2.1 (9c6d41e410, 2022-07-14)"
   xmlns:inkscape="http://www.inkscape.org/namespaces/inkscape"
   xmlns:sodipodi="http://sodipodi.sourceforge.net/DTD/sodipodi-0.dtd"
   xmlns:xlink="http://www.w3.org/1999/xlink"
   xmlns="http://www.w3.org/2000/svg"
   xmlns:svg="http://www.w3.org/2000/svg">
  <defs
     id="defs2992">
    <linearGradient
       inkscape:collect="always"
       id="linearGradient24357">
      <stop
         style="stop-color:#db6300;stop-opacity:1;"
         offset="0"
         id="stop24353" />
      <stop
         style="stop-color:#de881e;stop-opacity:1;"
         offset="1"
         id="stop24355" />
    </linearGradient>
    <linearGradient
       inkscape:collect="always"
       id="linearGradient5929">
      <stop
         style="stop-color:#db6300;stop-opacity:1;"
         offset="0"
         id="stop5925" />
      <stop
         style="stop-color:#de881e;stop-opacity:1;"
         offset="1"
         id="stop5927" />
    </linearGradient>
    <linearGradient
       inkscape:collect="always"
       xlink:href="#linearGradient5929"
       id="linearGradient5931"
       x1="-681.83118"
       y1="40.081211"
       x2="-521.85748"
       y2="40.081211"
       gradientUnits="userSpaceOnUse" />
    <linearGradient
       inkscape:collect="always"
       xlink:href="#linearGradient24357"
       id="linearGradient8111"
       gradientUnits="userSpaceOnUse"
       x1="-590.33405"
       y1="151.56902"
       x2="-661.69604"
       y2="194.01549" />
  </defs>
  <sodipodi:namedview
     id="namedview2990"
     pagecolor="#ffffff"
     bordercolor="#000000"
     borderopacity="0.25"
     inkscape:showpageshadow="2"
     inkscape:pageopacity="0.0"
     inkscape:pagecheckerboard="0"
     inkscape:deskcolor="#d1d1d1"
     showgrid="false"
     inkscape:zoom="0.32771536"
     inkscape:cx="207.49714"
     inkscape:cy="163.25143"
     inkscape:window-width="1628"
     inkscape:window-height="1040"
     inkscape:window-x="2071"
     inkscape:window-y="0"
     inkscape:window-maximized="0"
     inkscape:current-layer="g2994" />
  <g
     inkscape:groupmode="layer"
     inkscape:label="Image"
     id="g2994"
     transform="translate(846.60832,222.65655)">
    <g
       aria-label="satoshis"
       id="text3519"
       style="font-weight:900;font-size:211.132px;font-family:'Exo 2';-inkscape-font-specification:'Exo 2 Heavy';text-align:center;text-anchor:middle;fill:#ffffff;stroke-width:0.633397;fill-opacity:1">
      <path
         d="m -605.37203,-58.230751 h -40.11508 q -4.22264,0 -4.22264,-4.433772 v -13.512448 q 0,-2.322452 0.84453,-3.16698 0.84452,-1.05566 3.37811,-1.05566 h 35.25904 q 10.34547,0 10.34547,-6.333961 v -1.05566 q 0,-5.067168 -8.65641,-9.712072 l -20.90207,-11.612256 q -10.76773,-5.48944 -15.8349,-11.8234 -5.06717,-6.33396 -5.06717,-16.25716 0,-14.77924 7.81189,-21.7466 7.81188,-6.96735 24.49131,-6.96735 h 35.25904 q 4.22264,0 4.22264,4.43377 v 13.72358 q 0,2.32245 -0.84452,3.37811 -0.84453,0.84453 -3.37812,0.84453 h -29.34734 q -10.34547,0 -10.34547,5.2783 v 1.05566 q 0,4.6449 9.07867,9.50094 l 21.32434,12.66792 q 10.97886,5.9117 15.41263,12.24566 4.43377,6.122824 4.43377,16.25716 0,28.291689 -33.14772,28.291689 z"
         style="font-weight:bold;font-family:Rajdhani;-inkscape-font-specification:'Rajdhani Bold';fill:#ffffff;fill-opacity:1"
         id="path801" />
      <path
         d="m -515.85212,-58.230751 h -5.06717 q -16.67942,0 -25.7581,-8.867544 -9.07868,-8.867544 -9.07868,-25.546973 v -38.848292 q 0,-16.67942 9.07868,-25.54697 9.07868,-8.86754 25.7581,-8.86754 h 48.7715 q 4.6449,0 4.6449,4.43377 v 98.809777 q 0,4.433772 -4.6449,4.433772 h -17.73509 q -4.43377,0 -4.43377,-4.433772 v -6.967356 h -0.84453 q -2.32245,5.700564 -8.23415,8.656412 -5.9117,2.744716 -12.45679,2.744716 z m 21.53547,-39.270553 V -140.3611 q 0,-2.32245 -2.53359,-2.32245 h -19.84641 q -6.75622,0 -9.50094,2.95585 -2.74471,2.74471 -2.74471,9.50094 v 36.3147 q 0,6.756224 2.74471,9.712072 2.74472,2.744717 9.50094,2.744717 h 7.81189 q 14.56811,0 14.56811,-16.046033 z"
         style="font-weight:bold;font-family:Rajdhani;-inkscape-font-specification:'Rajdhani Bold';fill:#ffffff;fill-opacity:1"
         id="path803" />
      <path
         d="m -441.95598,-142.68355 h -8.44528 q -2.53359,0 -3.58925,-0.84453 -0.84453,-0.84453 -0.84453,-3.37811 v -14.56811 q 0,-4.43377 4.43378,-4.43377 h 8.44528 q 2.32245,0 2.32245,-2.32246 v -20.05754 q 0,-4.43377 4.6449,-4.43377 h 17.73509 q 4.43377,0 4.43377,4.43377 v 20.05754 q 0,2.32246 2.53359,2.32246 h 16.46829 q 4.43378,0 4.43378,4.43377 v 14.56811 q 0,2.32245 -1.05566,3.37811 -0.84453,0.84453 -3.37812,0.84453 h -16.46829 q -2.53359,0 -2.53359,2.32245 v 46.660172 q 0,6.545092 2.95585,9.50094 2.95585,2.744717 9.71207,2.744717 h 8.44528 q 4.43378,0 4.43378,4.433772 v 14.568108 q 0,2.322452 -1.05566,3.378112 -0.84453,0.844528 -3.37812,0.844528 h -12.87905 q -16.67943,0 -25.96924,-8.867544 -9.07867,-8.867544 -9.07867,-25.335841 V -140.3611 q 0,-2.32245 -2.32245,-2.32245 z"
         style="font-weight:bold;font-family:Rajdhani;-inkscape-font-specification:'Rajdhani Bold';fill:#ffffff;fill-opacity:1"
         id="path805" />
      <path
         d="m -318.2325,-58.230751 h -18.79075 q -16.67943,0 -25.75811,-8.867544 -9.07867,-8.867544 -9.07867,-25.546973 v -38.848292 q 0,-16.67942 9.07867,-25.54697 9.07868,-8.86754 25.75811,-8.86754 h 18.79075 q 16.46829,0 25.54697,9.07867 9.28981,8.86755 9.28981,25.33584 v 38.848292 q 0,16.468297 -9.28981,25.546973 -9.07868,8.867544 -25.54697,8.867544 z m -14.77924,-23.013388 h 10.76773 q 6.75622,0 9.50094,-2.744716 2.95585,-2.744717 2.95585,-9.500941 v -37.159234 q 0,-6.75622 -2.95585,-9.50094 -2.74472,-2.74471 -9.50094,-2.74471 h -10.76773 q -6.75623,0 -9.50094,2.74471 -2.74472,2.74472 -2.74472,9.50094 v 37.159234 q 0,6.756224 2.74472,9.500941 2.74471,2.744716 9.50094,2.744716 z"
         style="font-weight:bold;font-family:Rajdhani;-inkscape-font-specification:'Rajdhani Bold';fill:#ffffff;fill-opacity:1"
         id="path807" />
      <path
         d="m -221.5339,-58.230751 h -40.11508 q -4.22264,0 -4.22264,-4.433772 v -13.512448 q 0,-2.322452 0.84453,-3.16698 0.84453,-1.05566 3.37811,-1.05566 h 35.25905 q 10.34547,0 10.34547,-6.333961 v -1.05566 q 0,-5.067168 -8.65642,-9.712072 l -20.90206,-11.612256 q -10.76774,-5.48944 -15.8349,-11.8234 -5.06717,-6.33396 -5.06717,-16.25716 0,-14.77924 7.81188,-21.7466 7.81189,-6.96735 24.49131,-6.96735 h 35.25905 q 4.22264,0 4.22264,4.43377 v 13.72358 q 0,2.32245 -0.84453,3.37811 -0.84453,0.84453 -3.37811,0.84453 h -29.34735 q -10.34547,0 -10.34547,5.2783 v 1.05566 q 0,4.6449 9.07868,9.50094 l 21.32433,12.66792 q 10.97886,5.9117 15.41264,12.24566 4.43377,6.122824 4.43377,16.25716 0,28.291689 -33.14773,28.291689 z"
         style="font-weight:bold;font-family:Rajdhani;-inkscape-font-specification:'Rajdhani Bold';fill:#ffffff;fill-opacity:1"
         id="path809" />
      <path
         d="m -147.42661,-58.230751 h -17.94622 q -4.43377,0 -4.43377,-4.433772 V -202.22278 q 0,-4.43377 4.43377,-4.43377 h 17.94622 q 4.43377,0 4.43377,4.43377 v 47.71584 h 0.84453 q 4.6449,-11.40113 20.69094,-11.40113 h 6.75622 q 33.147724,0 33.147724,34.41451 v 68.829037 q 0,4.433772 -4.644904,4.433772 h -17.73509 q -4.43377,0 -4.43377,-4.433772 v -67.562237 q 0,-6.75623 -2.95585,-9.50094 -2.74471,-2.95585 -9.50094,-2.95585 h -7.60075 q -14.56811,0 -14.56811,16.04603 v 63.972997 q 0,4.433772 -4.43377,4.433772 z"
         style="font-weight:bold;font-family:Rajdhani;-inkscape-font-specification:'Rajdhani Bold';fill:#ffffff;fill-opacity:1"
         id="path811" />
      <path
         d="m -58.328763,-184.06543 v -18.36848 q 0,-4.22264 4.22264,-4.22264 h 18.368484 q 4.22264,0 4.22264,4.01151 v 18.57961 q 0,4.22264 -4.22264,4.22264 h -18.368484 q -4.22264,0 -4.22264,-4.22264 z m 0,121.400907 V -161.4743 q 0,-4.43377 4.22264,-4.43377 h 18.157352 q 4.433772,0 4.433772,4.43377 v 98.809777 q 0,2.744716 -1.05566,3.589244 -0.844528,0.844528 -3.16698,0.844528 h -18.157352 q -4.433772,0 -4.433772,-4.433772 z"
         style="font-weight:bold;font-family:Rajdhani;-inkscape-font-specification:'Rajdhani Bold';fill:#ffffff;fill-opacity:1"
         id="path813" />
      <path
         d="M 33.513589,-58.230751 H -6.6014913 q -4.2226397,0 -4.2226397,-4.433772 v -13.512448 q 0,-2.322452 0.8445276,-3.16698 0.8445281,-1.05566 3.3781121,-1.05566 H 28.657553 q 10.345469,0 10.345469,-6.333961 v -1.05566 q 0,-5.067168 -8.656413,-9.712072 L 9.444541,-109.11356 q -10.7677322,-5.48944 -15.8349003,-11.8234 -5.0671677,-6.33396 -5.0671677,-16.25716 0,-14.77924 7.8118837,-21.7466 7.8118842,-6.96735 24.4913123,-6.96735 h 35.259045 q 4.22264,0 4.22264,4.43377 v 13.72358 q 0,2.32245 -0.844528,3.37811 -0.844528,0.84453 -3.378112,0.84453 H 26.757365 q -10.345468,0 -10.345468,5.2783 v 1.05566 q 0,4.6449 9.078676,9.50094 l 21.324333,12.66792 q 10.978864,5.9117 15.412636,12.24566 4.433772,6.122824 4.433772,16.25716 0,28.291689 -33.147725,28.291689 z"
         style="font-weight:bold;font-family:Rajdhani;-inkscape-font-specification:'Rajdhani Bold';fill:#ffffff;fill-opacity:1"
         id="path815" />
    </g>
    <g
       aria-label="KLEINANZEIGEN"
       transform="scale(1.0345215,0.96663046)"
       id="text3627"
       style="font-weight:900;font-size:100.524px;font-family:'Exo 2';-inkscape-font-specification:'Exo 2 Heavy';text-align:center;letter-spacing:0px;text-anchor:middle;stroke-width:0.301573;fill:#ffffff;fill-opacity:1">
      <path
         d="m 113.24582,-63.910976 h -4.52358 q -1.40734,0 -1.40734,-1.407336 v -61.822258 q 0,-1.40734 1.40734,-1.40734 h 4.52358 q 1.40734,0 1.40734,1.40734 v 34.680777 h 0.30157 q 0.70367,-2.111004 2.21153,-4.121484 l 22.51737,-30.559293 q 0.90472,-1.40734 2.61363,-1.40734 h 5.42829 q 1.70891,0 0.50262,1.50786 l -19.90375,26.94043 22.71842,34.58026 q 1.10577,1.608384 -0.90471,1.608384 h -4.12149 q -2.111,0 -2.91519,-1.407336 l -19.30061,-29.453533 -9.14768,10.957116 v 18.496417 q 0,1.407336 -1.40734,1.407336 z"
         style="font-weight:500;font-family:Rajdhani;-inkscape-font-specification:'Rajdhani Medium';fill:#ffffff;fill-opacity:1"
         id="path841" />
      <path
         d="m 195.07237,-63.910976 h -32.26821 q -1.40733,0 -1.40733,-1.407336 v -61.822258 q 0,-1.40734 1.40733,-1.40734 h 4.52358 q 1.40734,0 1.40734,1.40734 v 55.690293 q 0,0.904716 1.00524,0.904716 h 25.33205 q 1.40733,0 1.40733,1.50786 v 3.719389 q 0,1.407336 -1.40733,1.407336 z"
         style="font-weight:500;font-family:Rajdhani;-inkscape-font-specification:'Rajdhani Medium';fill:#ffffff;fill-opacity:1"
         id="path843" />
      <path
         d="m 239.70505,-63.910976 h -31.56454 q -1.40733,0 -1.40733,-1.407336 v -61.822258 q 0,-1.40734 1.40733,-1.40734 h 31.56454 q 1.40734,0 1.40734,1.40734 v 3.61886 q 0,1.40734 -1.40734,1.40734 h -24.62838 q -1.00524,0 -1.00524,0.90471 v 20.30585 q 0,0.904717 1.00524,0.904717 h 21.51214 q 1.40733,0 1.40733,1.407336 v 3.618864 q 0,1.407336 -1.40733,1.407336 h -21.51214 q -1.00524,0 -1.00524,0.904716 v 21.411612 q 0,0.904716 1.00524,0.904716 h 24.62838 q 1.40734,0 1.40734,1.407336 v 3.618865 q 0,1.407336 -1.40734,1.407336 z"
         style="font-weight:500;font-family:Rajdhani;-inkscape-font-specification:'Rajdhani Medium';fill:#ffffff;fill-opacity:1"
         id="path845" />
      <path
         d="m 262.82551,-127.14057 v 61.822258 q 0,1.407336 -1.40733,1.407336 h -4.52358 q -1.40734,0 -1.40734,-1.407336 v -61.822258 q 0,-1.40734 1.40734,-1.40734 h 4.52358 q 1.40733,0 1.40733,1.40734 z"
         style="font-weight:500;font-family:Rajdhani;-inkscape-font-specification:'Rajdhani Medium';fill:#ffffff;fill-opacity:1"
         id="path847" />
      <path
         d="m 285.04125,-63.910976 h -4.42306 q -1.40734,0 -1.40734,-1.407336 v -61.822258 q 0,-1.40734 1.40734,-1.40734 h 4.12148 q 1.20629,0 1.60839,0.80419 l 27.74462,48.754143 h 0.4021 v -48.150993 q 0,-1.40734 1.40733,-1.40734 h 4.42306 q 1.40734,0 1.40734,1.40734 v 61.822258 q 0,1.407336 -1.40734,1.407336 h -3.71939 q -1.10576,0 -2.111,-1.306812 l -27.6441,-48.251522 h -0.4021 v 48.150998 q 0,1.407336 -1.40733,1.407336 z"
         style="font-weight:500;font-family:Rajdhani;-inkscape-font-specification:'Rajdhani Medium';fill:#ffffff;fill-opacity:1"
         id="path849" />
      <path
         d="m 338.41943,-63.910976 h -5.0262 q -1.30681,0 -0.90471,-1.407336 l 18.79799,-61.822258 q 0.40209,-1.40734 1.90995,-1.40734 h 7.23773 q 1.50786,0 1.90996,1.40734 l 18.79799,61.822258 q 0.40209,1.407336 -0.90472,1.407336 h -5.12672 q -1.10577,0 -1.40734,-1.407336 l -4.72463,-14.676505 h -24.32681 l -4.72463,14.676505 q -0.40209,1.407336 -1.50786,1.407336 z m 18.19485,-57.097634 -10.35397,34.781305 h 21.11004 l -10.35398,-34.781305 z"
         style="font-weight:500;font-family:Rajdhani;-inkscape-font-specification:'Rajdhani Medium';fill:#ffffff;fill-opacity:1"
         id="path851" />
      <path
         d="m 397.72867,-63.910976 h -4.42306 q -1.40733,0 -1.40733,-1.407336 v -61.822258 q 0,-1.40734 1.40733,-1.40734 h 4.12149 q 1.20629,0 1.60838,0.80419 l 27.74463,48.754143 h 0.40209 v -48.150993 q 0,-1.40734 1.40734,-1.40734 h 4.42305 q 1.40734,0 1.40734,1.40734 v 61.822258 q 0,1.407336 -1.40734,1.407336 h -3.71938 q -1.10577,0 -2.11101,-1.306812 l -27.6441,-48.251522 h -0.40209 v 48.150998 q 0,1.407336 -1.40734,1.407336 z"
         style="font-weight:500;font-family:Rajdhani;-inkscape-font-specification:'Rajdhani Medium';fill:#ffffff;fill-opacity:1"
         id="path853" />
      <path
         d="m 446.78433,-65.318312 v -3.618865 q 0,-1.809432 0.60314,-2.613624 l 31.16244,-49.759379 v -0.4021 h -29.05144 q -1.40733,0 -1.40733,-1.40733 v -4.02096 q 0,-1.40734 1.40733,-1.40734 h 35.5855 q 1.40734,0 1.40734,1.40734 v 4.82515 q 0,1.60838 -0.8042,2.81467 l -30.35824,48.352045 v 0.402096 h 30.76034 q 1.40734,0 1.40734,1.306812 v 4.020961 q 0,1.50786 -1.40734,1.50786 h -37.89755 q -1.40733,0 -1.40733,-1.407336 z"
         style="font-weight:500;font-family:Rajdhani;-inkscape-font-specification:'Rajdhani Medium';fill:#ffffff;fill-opacity:1"
         id="path855" />
      <path
         d="m 532.83289,-63.910976 h -31.56454 q -1.40733,0 -1.40733,-1.407336 v -61.822258 q 0,-1.40734 1.40733,-1.40734 h 31.56454 q 1.40733,0 1.40733,1.40734 v 3.61886 q 0,1.40734 -1.40733,1.40734 h -24.62838 q -1.00524,0 -1.00524,0.90471 v 20.30585 q 0,0.904717 1.00524,0.904717 h 21.51213 q 1.40734,0 1.40734,1.407336 v 3.618864 q 0,1.407336 -1.40734,1.407336 h -21.51213 q -1.00524,0 -1.00524,0.904716 v 21.411612 q 0,0.904716 1.00524,0.904716 h 24.62838 q 1.40733,0 1.40733,1.407336 v 3.618865 q 0,1.407336 -1.40733,1.407336 z"
         style="font-weight:500;font-family:Rajdhani;-inkscape-font-specification:'Rajdhani Medium';fill:#ffffff;fill-opacity:1"
         id="path857" />
      <path
         d="m 555.95335,-127.14057 v 61.822258 q 0,1.407336 -1.40733,1.407336 h -4.52358 q -1.40734,0 -1.40734,-1.407336 v -61.822258 q 0,-1.40734 1.40734,-1.40734 h 4.52358 q 1.40733,0 1.40733,1.40734 z"
         style="font-weight:500;font-family:Rajdhani;-inkscape-font-specification:'Rajdhani Medium';fill:#ffffff;fill-opacity:1"
         id="path859" />
      <path
         d="m 597.06758,-63.910976 h -10.85659 q -6.93616,0 -10.95712,-3.920436 -3.92043,-3.920437 -3.92043,-10.957117 v -34.881831 q 0,-7.03668 3.92043,-10.95711 4.02096,-3.92044 10.95712,-3.92044 h 10.85659 q 6.93616,0 10.85659,4.02096 3.92044,3.92044 3.92044,10.85659 v 4.12149 q 0,1.50786 -1.40734,1.50786 h -4.52358 q -1.40733,0 -1.40733,-1.50786 v -3.81992 q 0,-8.74558 -8.34349,-8.74558 h -9.14769 q -8.34349,0 -8.34349,8.74558 v 34.278689 q 0,8.745588 8.34349,8.745588 h 9.14769 q 8.34349,0 8.34349,-8.745588 v -11.258688 q 0,-1.00524 -0.90472,-1.00524 h -9.95187 q -1.40734,0 -1.40734,-1.306812 v -3.719388 q 0,-1.407336 1.40734,-1.407336 h 16.18436 q 2.01048,0 2.01048,2.111004 v 16.888032 q 0,7.03668 -3.92044,10.957117 -3.92043,3.920436 -10.85659,3.920436 z"
         style="font-weight:500;font-family:Rajdhani;-inkscape-font-specification:'Rajdhani Medium';fill:#ffffff;fill-opacity:1"
         id="path861" />
      <path
         d="m 659.69406,-63.910976 h -31.56453 q -1.40734,0 -1.40734,-1.407336 v -61.822258 q 0,-1.40734 1.40734,-1.40734 h 31.56453 q 1.40734,0 1.40734,1.40734 v 3.61886 q 0,1.40734 -1.40734,1.40734 h -24.62838 q -1.00524,0 -1.00524,0.90471 v 20.30585 q 0,0.904717 1.00524,0.904717 h 21.51214 q 1.40734,0 1.40734,1.407336 v 3.618864 q 0,1.407336 -1.40734,1.407336 h -21.51214 q -1.00524,0 -1.00524,0.904716 v 21.411612 q 0,0.904716 1.00524,0.904716 h 24.62838 q 1.40734,0 1.40734,1.407336 v 3.618865 q 0,1.407336 -1.40734,1.407336 z"
         style="font-weight:500;font-family:Rajdhani;-inkscape-font-specification:'Rajdhani Medium';fill:#ffffff;fill-opacity:1"
         id="path863" />
      <path
         d="m 680.80411,-63.910976 h -4.42306 q -1.40733,0 -1.40733,-1.407336 v -61.822258 q 0,-1.40734 1.40733,-1.40734 h 4.12149 q 1.20629,0 1.60838,0.80419 l 27.74463,48.754143 h 0.40209 v -48.150993 q 0,-1.40734 1.40734,-1.40734 h 4.42305 q 1.40734,0 1.40734,1.40734 v 61.822258 q 0,1.407336 -1.40734,1.407336 h -3.71938 q -1.10577,0 -2.11101,-1.306812 l -27.6441,-48.251522 h -0.40209 v 48.150998 q 0,1.407336 -1.40734,1.407336 z"
         style="font-weight:500;font-family:Rajdhani;-inkscape-font-specification:'Rajdhani Medium';fill:#ffffff;fill-opacity:1"
         id="path865" />
    </g>
    <g
       id="g5900"
       style="fill:url(#linearGradient5931);fill-opacity:1"
       transform="translate(-164.77714,-170.88)">
      <path
         id="rect5870"
         style="fill:url(#linearGradient8111);stroke-width:0.9759;fill-rule:nonzero"
         d="M -492.23599 263.71319 L -492.23451 298.77495 L -470.65759 298.77554 L -470.65744 263.71271 L -492.23599 263.71319 z M -544.55961 315.30552 L -544.55913 336.88407 L -417.25577 336.88225 L -417.25518 315.30533 L -544.55961 315.30552 z M -544.56011 353.30606 L -544.55799 374.88354 L -417.25626 374.88278 L -417.25567 353.30586 L -544.56011 353.30606 z M -544.55897 391.30552 L -544.55956 412.88244 L -417.25513 412.88225 L -417.25617 391.3064 L -544.55897 391.30552 z M -492.23503 429.71372 L -492.23625 464.77493 L -470.65933 464.77552 L -470.65918 429.71268 L -492.23503 429.71372 z "
         transform="rotate(33.302995)" />
    </g>
  </g>
</svg>
